<svg width="70" height="70" viewBox="0 0 70 70" fill="none" xmlns="http://www.w3.org/2000/svg">
<g clip-path="url(#clip0_2_562)">
<path d="M64.2268 10.3853C64.2005 9.95595 63.8674 9.61059 63.4406 9.56772C49.5438 8.17893 35.5764 0.197391 35.4363 0.116944C35.1644 -0.0386558 34.832 -0.0386558 34.5618 0.116944C34.4228 0.197391 20.4666 8.17808 6.55844 9.56772C6.1316 9.61059 5.79854 9.95595 5.77309 10.3853C5.75038 10.7562 3.86934 47.752 34.4882 69.8358C34.6412 69.946 34.8206 70.0003 34.9998 70.0003C35.1791 70.0003 35.3583 69.9461 35.5113 69.8358C66.1305 47.7519 64.2495 10.7551 64.2268 10.3853ZM34.9991 68.0439C8.04697 48.2146 7.40954 16.4491 7.49597 11.2248C20.2733 9.74347 32.5154 3.25542 34.9991 1.87808C37.4827 3.25542 49.7257 9.7433 62.5022 11.2248C62.5932 16.4473 61.9749 48.1987 34.9991 68.0439Z" fill="#57ADE4"/>
<path d="M57.6654 15.5281C57.6402 15.0987 57.3069 14.7534 56.8801 14.7105C46.2445 13.648 35.5439 7.53429 35.4365 7.47315C35.1646 7.31755 34.8322 7.31755 34.562 7.47315C34.4552 7.53429 23.7653 13.6471 13.1182 14.7105C12.6914 14.7534 12.3583 15.0987 12.3329 15.5281C12.3146 15.8141 10.8637 44.3614 34.4875 61.4002C34.6406 61.5104 34.8199 61.5647 34.9991 61.5647C35.1784 61.5647 35.3576 61.5106 35.5106 61.4002C59.1336 44.3614 57.6829 15.8142 57.6654 15.5281ZM34.9991 59.6075C14.7596 44.6255 14.0129 20.8312 14.06 16.3659C23.6936 15.2028 32.8881 10.3949 34.9991 9.23257C37.1102 10.3947 46.3046 15.2028 55.9381 16.3659C55.9854 20.8312 55.2387 44.6255 34.9991 59.6075Z" fill="#57ADE4"/>
</g>
<defs>
<clipPath id="clip0_2_562">
<rect width="70" height="70" fill="white"/>
</clipPath>
</defs>
</svg>
